<?xml version="1.0" encoding="UTF-8"?>
<svg width="102.05" height="102.05" clip-rule="evenodd" fill-rule="evenodd" stroke-linejoin="round" stroke-miterlimit="2" version="1.1" viewBox="0 0 102.05 102.05" xml:space="preserve" xmlns="http://www.w3.org/2000/svg" xmlns:cc="http://creativecommons.org/ns#" xmlns:dc="http://purl.org/dc/elements/1.1/" xmlns:rdf="http://www.w3.org/1999/02/22-rdf-syntax-ns#"><metadata><rdf:RDF><cc:Work rdf:about=""><dc:format>image/svg+xml</dc:format><dc:type rdf:resource="http://purl.org/dc/dcmitype/StillImage"/><dc:title/></cc:Work></rdf:RDF></metadata><g transform="translate(0,28)" fill="#c81919" fill-rule="nonzero"><path d="m17.833 9.39v26.324h-8.219v-26.324h-9.614v-6.838h27.446v6.838z"/><path d="m58.758 28.664c-0.689 1.639-1.675 3.044-2.956 4.215-1.282 1.171-2.828 2.085-4.639 2.74-1.811 0.656-3.821 0.984-6.032 0.984-2.244 0-4.262-0.328-6.057-0.984-1.795-0.655-3.316-1.569-4.566-2.74s-2.211-2.576-2.884-4.215c-0.673-1.64-1.01-3.458-1.01-5.457v-20.656h8.172v20c0 0.906 0.12 1.765 0.361 2.576 0.24 0.813 0.608 1.539 1.105 2.179 0.496 0.64 1.154 1.147 1.971 1.522s1.802 0.562 2.956 0.562 2.139-0.187 2.956-0.562 1.482-0.882 1.995-1.522c0.512-0.64 0.881-1.366 1.105-2.179 0.224-0.811 0.337-1.67 0.337-2.576v-20h8.219v20.656c0 1.999-0.344 3.817-1.033 5.457"/><path d="m64.877 40.819 16.664-40.819h-5.952l-16.664 40.819z"/><path d="m89.635 17.143c2.943 0 5.464 1.806 6.516 4.37h-13.032c1.052-2.564 3.573-4.37 6.516-4.37m0-5.373c-6.857 0-12.415 5.559-12.415 12.415 0 6.857 5.558 12.415 12.415 12.415 4.4 0 8.896-1.925 11.323-5.394l-5.631-2.296c-1.499 1.662-3.553 2.318-5.692 2.318-3.156 0-5.827-2.076-6.722-4.937h18.956c0.117-0.685 0.181-1.388 0.181-2.106 0-6.856-5.558-12.415-12.415-12.415"/></g></svg>
