<?xml version="1.0" encoding="UTF-8" standalone="no"?><!DOCTYPE svg PUBLIC "-//W3C//DTD SVG 1.1//EN" "http://www.w3.org/Graphics/SVG/1.1/DTD/svg11.dtd"><svg width="100%" height="100%" viewBox="0 0 197 41" version="1.1" xmlns="http://www.w3.org/2000/svg" xmlns:xlink="http://www.w3.org/1999/xlink" xml:space="preserve" xmlns:serif="http://www.serif.com/" style="fill-rule:evenodd;clip-rule:evenodd;stroke-linejoin:round;stroke-miterlimit:2;"><path d="M112.272,10.205l0,-7.637l5.141,0l0,1.553l-3.359,0l0,1.445l3.175,0l0,1.478l-3.175,0l0,1.586l3.553,0l0,1.575l-5.335,0Z" style="fill:#c81919;fill-rule:nonzero;"/><rect x="119.104" y="2.568" width="1.858" height="7.637" style="fill:#c81919;"/><path d="M127.597,10.205l-3.078,-4.994l-0.032,0l0.043,4.994l-1.793,0l0,-7.637l2.106,0l3.067,4.983l0.033,0l-0.044,-4.983l1.793,0l0,7.637l-2.095,0Z" style="fill:#c81919;fill-rule:nonzero;"/><path d="M136.687,6.365c0,-0.432 -0.07,-0.789 -0.212,-1.073c-0.139,-0.284 -0.327,-0.511 -0.56,-0.68c-0.234,-0.169 -0.501,-0.289 -0.799,-0.361c-0.299,-0.072 -0.607,-0.108 -0.924,-0.108l-0.918,0l0,4.465l0.875,0c0.331,0 0.65,-0.037 0.956,-0.113c0.306,-0.075 0.576,-0.199 0.81,-0.372c0.234,-0.172 0.421,-0.402 0.561,-0.69c0.141,-0.288 0.211,-0.644 0.211,-1.068m1.922,0c0,0.669 -0.124,1.246 -0.372,1.731c-0.249,0.486 -0.576,0.885 -0.983,1.198c-0.407,0.312 -0.866,0.543 -1.377,0.69c-0.511,0.147 -1.03,0.221 -1.555,0.221l-2.851,0l0,-7.637l2.764,0c0.54,0 1.073,0.063 1.599,0.189c0.525,0.126 0.993,0.334 1.404,0.625c0.41,0.292 0.741,0.682 0.993,1.171c0.252,0.489 0.378,1.093 0.378,1.812" style="fill:#c81919;fill-rule:nonzero;"/><path d="M144.819,10.205l0,-3.193l-2.981,0l0,3.193l-1.847,0l0,-7.637l1.847,0l0,2.891l2.981,0l0,-2.891l1.847,0l0,7.637l-1.847,0Z" style="fill:#c81919;fill-rule:nonzero;"/><path d="M154.426,6.354c0,-0.331 -0.054,-0.64 -0.162,-0.928c-0.108,-0.287 -0.258,-0.534 -0.448,-0.738c-0.191,-0.205 -0.421,-0.367 -0.691,-0.486c-0.27,-0.119 -0.567,-0.178 -0.891,-0.178c-0.324,0 -0.62,0.059 -0.886,0.178c-0.267,0.119 -0.497,0.281 -0.691,0.486c-0.195,0.204 -0.344,0.451 -0.448,0.738c-0.105,0.288 -0.157,0.597 -0.157,0.928c0,0.345 0.054,0.663 0.162,0.955c0.108,0.291 0.257,0.541 0.448,0.749c0.191,0.209 0.419,0.373 0.686,0.491c0.266,0.119 0.562,0.178 0.886,0.178c0.324,0 0.619,-0.059 0.885,-0.178c0.267,-0.118 0.497,-0.282 0.691,-0.491c0.195,-0.208 0.346,-0.458 0.454,-0.749c0.108,-0.292 0.162,-0.61 0.162,-0.955m1.976,0c0,0.604 -0.104,1.156 -0.313,1.656c-0.209,0.5 -0.498,0.928 -0.869,1.284c-0.371,0.356 -0.812,0.631 -1.323,0.825c-0.511,0.194 -1.066,0.291 -1.663,0.291c-0.598,0 -1.151,-0.097 -1.658,-0.291c-0.508,-0.194 -0.947,-0.469 -1.318,-0.825c-0.371,-0.356 -0.661,-0.784 -0.869,-1.284c-0.209,-0.5 -0.313,-1.052 -0.313,-1.656c0,-0.611 0.104,-1.163 0.313,-1.656c0.208,-0.492 0.498,-0.911 0.869,-1.257c0.371,-0.345 0.81,-0.611 1.318,-0.798c0.507,-0.187 1.06,-0.28 1.658,-0.28c0.597,0 1.152,0.093 1.663,0.28c0.511,0.187 0.952,0.453 1.323,0.798c0.371,0.346 0.66,0.765 0.869,1.257c0.209,0.493 0.313,1.045 0.313,1.656" style="fill:#c81919;fill-rule:nonzero;"/><path d="M161.321,10.205l-1.847,0l-2.894,-7.637l2.073,0l1.772,5.415l0.043,0l1.76,-5.415l2.041,0l-2.948,7.637Z" style="fill:#c81919;fill-rule:nonzero;"/><path d="M165.151,10.205l0,-7.637l5.141,0l0,1.553l-3.359,0l0,1.445l3.175,0l0,1.478l-3.175,0l0,1.586l3.553,0l0,1.575l-5.335,0Z" style="fill:#c81919;fill-rule:nonzero;"/><path d="M176.833,10.205l-3.078,-4.994l-0.032,0l0.043,4.994l-1.793,0l0,-7.637l2.106,0l3.067,4.983l0.033,0l-0.044,-4.983l1.793,0l0,7.637l-2.095,0Z" style="fill:#c81919;fill-rule:nonzero;"/><path d="M116.279,29.655l0,6.062l-1.847,0l0,-6.062l-2.16,0l0,-1.575l6.167,0l0,1.575l-2.16,0Z" style="fill:#c81919;fill-rule:nonzero;"/><path d="M119.43,35.717l0,-7.637l5.141,0l0,1.553l-3.359,0l0,1.445l3.175,0l0,1.478l-3.175,0l0,1.586l3.553,0l0,1.575l-5.335,0Z" style="fill:#c81919;fill-rule:nonzero;"/><path d="M131.599,35.582c-0.498,0.226 -1.069,0.34 -1.718,0.34c-0.59,0 -1.136,-0.098 -1.636,-0.291c-0.501,-0.195 -0.934,-0.47 -1.302,-0.826c-0.367,-0.356 -0.654,-0.782 -0.864,-1.278c-0.208,-0.496 -0.312,-1.043 -0.312,-1.64c0,-0.611 0.106,-1.165 0.319,-1.661c0.212,-0.496 0.505,-0.919 0.88,-1.267c0.374,-0.349 0.813,-0.617 1.317,-0.804c0.504,-0.187 1.048,-0.28 1.631,-0.28c0.54,0 1.071,0.095 1.593,0.285c0.522,0.191 0.945,0.47 1.269,0.836l-1.253,1.252c-0.172,-0.238 -0.399,-0.414 -0.68,-0.529c-0.281,-0.115 -0.569,-0.173 -0.864,-0.173c-0.324,0 -0.621,0.06 -0.891,0.179c-0.27,0.118 -0.502,0.282 -0.697,0.49c-0.194,0.209 -0.345,0.455 -0.453,0.739c-0.108,0.284 -0.162,0.595 -0.162,0.933c0,0.345 0.054,0.662 0.162,0.949c0.108,0.288 0.257,0.534 0.448,0.739c0.191,0.206 0.419,0.366 0.686,0.481c0.266,0.115 0.558,0.172 0.875,0.172c0.367,0 0.687,-0.072 0.961,-0.216c0.273,-0.144 0.493,-0.33 0.659,-0.561l1.285,1.208c-0.339,0.389 -0.756,0.696 -1.253,0.923" style="fill:#c81919;fill-rule:nonzero;"/><path d="M138.644,35.717l0,-3.193l-2.981,0l0,3.193l-1.847,0l0,-7.637l1.847,0l0,2.891l2.981,0l0,-2.891l1.847,0l0,7.637l-1.847,0Z" style="fill:#c81919;fill-rule:nonzero;"/><path d="M147.134,35.717l-3.078,-4.994l-0.032,0l0.043,4.994l-1.793,0l0,-7.637l2.106,0l3.067,4.983l0.033,0l-0.044,-4.983l1.793,0l0,7.637l-2.095,0Z" style="fill:#c81919;fill-rule:nonzero;"/><path d="M156.984,31.866c0,-0.331 -0.054,-0.64 -0.162,-0.928c-0.108,-0.287 -0.258,-0.534 -0.448,-0.738c-0.191,-0.205 -0.421,-0.367 -0.691,-0.486c-0.27,-0.119 -0.567,-0.178 -0.891,-0.178c-0.324,0 -0.62,0.059 -0.886,0.178c-0.267,0.119 -0.497,0.281 -0.691,0.486c-0.195,0.204 -0.344,0.451 -0.448,0.738c-0.105,0.288 -0.157,0.597 -0.157,0.928c0,0.345 0.054,0.663 0.162,0.955c0.108,0.291 0.257,0.541 0.448,0.749c0.191,0.209 0.419,0.373 0.686,0.491c0.266,0.119 0.562,0.178 0.886,0.178c0.324,0 0.619,-0.059 0.885,-0.178c0.267,-0.118 0.497,-0.282 0.691,-0.491c0.195,-0.208 0.346,-0.458 0.454,-0.749c0.108,-0.292 0.162,-0.61 0.162,-0.955m1.976,0c0,0.604 -0.104,1.156 -0.313,1.656c-0.209,0.5 -0.498,0.928 -0.869,1.284c-0.371,0.356 -0.812,0.631 -1.323,0.825c-0.511,0.194 -1.066,0.291 -1.663,0.291c-0.598,0 -1.151,-0.097 -1.658,-0.291c-0.508,-0.194 -0.947,-0.469 -1.318,-0.825c-0.371,-0.356 -0.661,-0.784 -0.869,-1.284c-0.209,-0.5 -0.313,-1.052 -0.313,-1.656c0,-0.611 0.104,-1.163 0.313,-1.656c0.208,-0.492 0.498,-0.911 0.869,-1.257c0.371,-0.345 0.81,-0.611 1.318,-0.798c0.507,-0.187 1.06,-0.28 1.658,-0.28c0.597,0 1.152,0.093 1.663,0.28c0.511,0.187 0.952,0.453 1.323,0.798c0.371,0.346 0.66,0.765 0.869,1.257c0.209,0.493 0.313,1.045 0.313,1.656" style="fill:#c81919;fill-rule:nonzero;"/><path d="M160.349,35.717l0,-7.637l1.858,0l0,6.03l2.959,0l0,1.607l-4.817,0Z" style="fill:#c81919;fill-rule:nonzero;"/><path d="M172.066,31.866c0,-0.331 -0.054,-0.64 -0.162,-0.928c-0.108,-0.287 -0.258,-0.534 -0.448,-0.738c-0.191,-0.205 -0.421,-0.367 -0.691,-0.486c-0.27,-0.119 -0.567,-0.178 -0.891,-0.178c-0.324,0 -0.62,0.059 -0.886,0.178c-0.267,0.119 -0.497,0.281 -0.691,0.486c-0.195,0.204 -0.344,0.451 -0.448,0.738c-0.105,0.288 -0.157,0.597 -0.157,0.928c0,0.345 0.054,0.663 0.162,0.955c0.108,0.291 0.257,0.541 0.448,0.749c0.191,0.209 0.419,0.373 0.686,0.491c0.266,0.119 0.562,0.178 0.886,0.178c0.324,0 0.619,-0.059 0.885,-0.178c0.267,-0.118 0.497,-0.282 0.691,-0.491c0.195,-0.208 0.346,-0.458 0.454,-0.749c0.108,-0.292 0.162,-0.61 0.162,-0.955m1.976,0c0,0.604 -0.104,1.156 -0.313,1.656c-0.209,0.5 -0.498,0.928 -0.869,1.284c-0.371,0.356 -0.812,0.631 -1.323,0.825c-0.511,0.194 -1.066,0.291 -1.663,0.291c-0.598,0 -1.151,-0.097 -1.658,-0.291c-0.508,-0.194 -0.947,-0.469 -1.318,-0.825c-0.371,-0.356 -0.661,-0.784 -0.869,-1.284c-0.209,-0.5 -0.313,-1.052 -0.313,-1.656c0,-0.611 0.104,-1.163 0.313,-1.656c0.208,-0.492 0.498,-0.911 0.869,-1.257c0.371,-0.345 0.81,-0.611 1.318,-0.798c0.507,-0.187 1.06,-0.28 1.658,-0.28c0.597,0 1.152,0.093 1.663,0.28c0.511,0.187 0.952,0.453 1.323,0.798c0.371,0.346 0.66,0.765 0.869,1.257c0.209,0.493 0.313,1.045 0.313,1.656" style="fill:#c81919;fill-rule:nonzero;"/><path d="M180.881,35.728c-0.5,0.122 -1.046,0.184 -1.636,0.184c-0.612,0 -1.176,-0.098 -1.69,-0.292c-0.515,-0.194 -0.958,-0.467 -1.329,-0.82c-0.371,-0.352 -0.66,-0.774 -0.869,-1.267c-0.209,-0.493 -0.313,-1.041 -0.313,-1.645c0,-0.611 0.106,-1.165 0.318,-1.661c0.213,-0.496 0.506,-0.919 0.88,-1.268c0.375,-0.348 0.814,-0.616 1.318,-0.803c0.504,-0.187 1.048,-0.281 1.631,-0.281c0.605,0 1.166,0.092 1.685,0.275c0.518,0.183 0.939,0.43 1.263,0.739l-1.166,1.327c-0.18,-0.209 -0.418,-0.379 -0.713,-0.512c-0.295,-0.133 -0.63,-0.2 -1.004,-0.2c-0.324,0 -0.623,0.059 -0.897,0.178c-0.273,0.119 -0.511,0.284 -0.713,0.496c-0.201,0.212 -0.358,0.464 -0.469,0.755c-0.112,0.291 -0.168,0.61 -0.168,0.955c0,0.352 0.051,0.676 0.151,0.971c0.101,0.295 0.251,0.548 0.449,0.76c0.198,0.212 0.442,0.378 0.734,0.496c0.292,0.119 0.625,0.178 0.999,0.178c0.216,0 0.421,-0.016 0.616,-0.048c0.194,-0.032 0.374,-0.085 0.54,-0.157l0,-1.391l-1.458,0l0,-1.489l3.153,0l0,4.045c-0.374,0.195 -0.812,0.353 -1.312,0.475" style="fill:#c81919;fill-rule:nonzero;"/><path d="M187.502,32.481l0,3.236l-1.847,0l0,-3.236l-2.873,-4.401l2.236,0l1.631,2.826l1.631,-2.826l2.16,0l-2.938,4.401Z" style="fill:#c81919;fill-rule:nonzero;"/><path d="M118.595,21.338c-0.155,0.378 -0.376,0.701 -0.664,0.971c-0.288,0.27 -0.636,0.48 -1.042,0.631c-0.407,0.151 -0.859,0.226 -1.356,0.226c-0.504,0 -0.958,-0.075 -1.361,-0.226c-0.403,-0.151 -0.745,-0.361 -1.026,-0.631c-0.281,-0.27 -0.496,-0.593 -0.648,-0.971c-0.151,-0.377 -0.227,-0.796 -0.227,-1.258l0,-4.756l1.837,0l0,4.605c0,0.209 0.027,0.407 0.081,0.595c0.054,0.187 0.136,0.354 0.248,0.501c0.111,0.148 0.259,0.264 0.443,0.351c0.183,0.085 0.405,0.128 0.664,0.128c0.259,0 0.481,-0.043 0.664,-0.128c0.184,-0.087 0.333,-0.203 0.448,-0.351c0.115,-0.148 0.198,-0.314 0.249,-0.502c0.05,-0.187 0.075,-0.385 0.075,-0.594l0,-4.605l1.847,0l0,4.756c0,0.462 -0.077,0.881 -0.232,1.258" style="fill:#c81919;fill-rule:nonzero;"/><path d="M125.402,22.961l-3.078,-4.994l-0.032,0l0.043,4.994l-1.793,0l0,-7.637l2.106,0l3.067,4.983l0.033,0l-0.044,-4.983l1.793,0l0,7.637l-2.095,0Z" style="fill:#c81919;fill-rule:nonzero;"/><rect x="129.273" y="15.324" width="1.858" height="7.637" style="fill:#c81919;"/><path d="M136.753,22.961l-1.847,0l-2.894,-7.637l2.073,0l1.772,5.415l0.043,0l1.76,-5.415l2.041,0l-2.948,7.637Z" style="fill:#c81919;fill-rule:nonzero;"/><path d="M140.583,22.961l0,-7.637l5.141,0l0,1.553l-3.359,0l0,1.445l3.175,0l0,1.478l-3.175,0l0,1.586l3.553,0l0,1.575l-5.335,0Z" style="fill:#c81919;fill-rule:nonzero;"/><path d="M151.423,17.665c0,-0.18 -0.038,-0.325 -0.114,-0.437c-0.076,-0.111 -0.174,-0.198 -0.293,-0.259c-0.12,-0.061 -0.253,-0.102 -0.402,-0.124c-0.148,-0.021 -0.291,-0.032 -0.428,-0.032l-0.988,0l0,1.78l0.879,0c0.152,0 0.308,-0.013 0.467,-0.038c0.159,-0.025 0.304,-0.07 0.434,-0.135c0.13,-0.065 0.237,-0.158 0.32,-0.28c0.083,-0.123 0.125,-0.281 0.125,-0.475m0.076,5.296l-1.66,-3.031l-0.63,0l0,3.031l-1.804,0l0,-7.637l2.916,0c0.368,0 0.726,0.038 1.075,0.113c0.349,0.076 0.662,0.204 0.94,0.383c0.277,0.18 0.498,0.417 0.664,0.712c0.165,0.295 0.248,0.662 0.248,1.1c0,0.518 -0.14,0.953 -0.421,1.306c-0.281,0.352 -0.67,0.604 -1.166,0.755l1.998,3.268l-2.16,0Z" style="fill:#c81919;fill-rule:nonzero;"/><path d="M158.821,17.309c-0.158,-0.201 -0.365,-0.361 -0.621,-0.48c-0.256,-0.119 -0.502,-0.178 -0.74,-0.178c-0.122,0 -0.246,0.011 -0.372,0.032c-0.126,0.022 -0.24,0.064 -0.341,0.124c-0.1,0.062 -0.185,0.141 -0.253,0.238c-0.069,0.097 -0.103,0.221 -0.103,0.372c0,0.129 0.027,0.237 0.081,0.324c0.054,0.086 0.133,0.161 0.238,0.226c0.104,0.065 0.228,0.124 0.372,0.178c0.144,0.054 0.306,0.11 0.486,0.167c0.259,0.086 0.529,0.182 0.81,0.286c0.281,0.105 0.537,0.243 0.767,0.415c0.23,0.173 0.421,0.387 0.572,0.642c0.152,0.256 0.227,0.574 0.227,0.955c0,0.439 -0.081,0.818 -0.243,1.138c-0.162,0.32 -0.38,0.584 -0.653,0.793c-0.274,0.209 -0.587,0.363 -0.94,0.464c-0.353,0.1 -0.716,0.151 -1.091,0.151c-0.547,0 -1.076,-0.096 -1.587,-0.286c-0.512,-0.191 -0.936,-0.462 -1.275,-0.815l1.21,-1.229c0.187,0.23 0.434,0.422 0.74,0.577c0.306,0.155 0.61,0.232 0.912,0.232c0.137,0 0.27,-0.015 0.4,-0.043c0.13,-0.029 0.243,-0.076 0.34,-0.141c0.097,-0.064 0.175,-0.151 0.232,-0.259c0.058,-0.107 0.087,-0.237 0.087,-0.388c0,-0.144 -0.036,-0.266 -0.108,-0.367c-0.072,-0.1 -0.175,-0.192 -0.308,-0.275c-0.133,-0.082 -0.299,-0.158 -0.497,-0.226c-0.198,-0.069 -0.423,-0.142 -0.675,-0.221c-0.245,-0.079 -0.484,-0.173 -0.718,-0.281c-0.234,-0.108 -0.443,-0.246 -0.626,-0.415c-0.184,-0.169 -0.332,-0.374 -0.443,-0.615c-0.112,-0.241 -0.168,-0.534 -0.168,-0.879c0,-0.424 0.087,-0.788 0.26,-1.09c0.172,-0.302 0.399,-0.55 0.68,-0.744c0.281,-0.194 0.598,-0.336 0.95,-0.426c0.353,-0.09 0.709,-0.135 1.07,-0.135c0.432,0 0.873,0.079 1.323,0.237c0.45,0.159 0.844,0.392 1.182,0.702l-1.177,1.24Z" style="fill:#c81919;fill-rule:nonzero;"/><rect x="161.354" y="15.324" width="1.858" height="7.637" style="fill:#c81919;"/><path d="M168.204,16.899l0,6.062l-1.847,0l0,-6.062l-2.16,0l0,-1.575l6.167,0l0,1.575l-2.16,0Z" style="fill:#c81919;fill-rule:nonzero;"/><path d="M175.592,19.725l0,3.236l-1.847,0l0,-3.236l-2.873,-4.401l2.236,0l1.631,2.826l1.631,-2.826l2.16,0l-2.938,4.401Z" style="fill:#c81919;fill-rule:nonzero;"/><path d="M188.228,19.11c0,-0.331 -0.054,-0.64 -0.162,-0.928c-0.108,-0.287 -0.258,-0.534 -0.448,-0.738c-0.191,-0.205 -0.421,-0.367 -0.691,-0.486c-0.27,-0.119 -0.567,-0.178 -0.891,-0.178c-0.324,0 -0.62,0.059 -0.886,0.178c-0.266,0.119 -0.497,0.281 -0.691,0.486c-0.195,0.204 -0.344,0.451 -0.448,0.738c-0.105,0.288 -0.157,0.597 -0.157,0.928c0,0.345 0.054,0.663 0.162,0.955c0.108,0.291 0.257,0.541 0.448,0.749c0.191,0.209 0.42,0.373 0.686,0.491c0.266,0.119 0.562,0.178 0.886,0.178c0.324,0 0.619,-0.059 0.885,-0.178c0.267,-0.118 0.497,-0.282 0.691,-0.491c0.195,-0.208 0.346,-0.458 0.454,-0.749c0.108,-0.292 0.162,-0.61 0.162,-0.955m1.976,0c0,0.604 -0.104,1.156 -0.313,1.656c-0.209,0.5 -0.498,0.928 -0.869,1.283c-0.371,0.357 -0.812,0.632 -1.323,0.826c-0.511,0.194 -1.066,0.291 -1.663,0.291c-0.598,0 -1.151,-0.097 -1.658,-0.291c-0.508,-0.194 -0.947,-0.469 -1.318,-0.826c-0.371,-0.355 -0.661,-0.783 -0.869,-1.283c-0.209,-0.5 -0.313,-1.052 -0.313,-1.656c0,-0.611 0.104,-1.163 0.313,-1.656c0.208,-0.492 0.498,-0.911 0.869,-1.257c0.371,-0.345 0.81,-0.611 1.318,-0.798c0.507,-0.187 1.06,-0.28 1.658,-0.28c0.597,0 1.152,0.093 1.663,0.28c0.511,0.187 0.952,0.453 1.323,0.798c0.371,0.346 0.66,0.765 0.869,1.257c0.209,0.493 0.313,1.045 0.313,1.656" style="fill:#c81919;fill-rule:nonzero;"/><path d="M193.418,16.899l0,1.575l2.959,0l0,1.521l-2.959,0l0,2.966l-1.825,0l0,-7.637l5.033,0l0,1.575l-3.208,0Z" style="fill:#c81919;fill-rule:nonzero;"/><path d="M17.833,9.39l0,26.324l-8.219,0l0,-26.324l-9.614,0l0,-6.838l27.446,0l0,6.838l-9.613,0Z" style="fill:#c81919;fill-rule:nonzero;"/><path d="M58.758,28.664c-0.689,1.639 -1.675,3.044 -2.956,4.215c-1.282,1.171 -2.828,2.085 -4.639,2.74c-1.811,0.656 -3.821,0.984 -6.032,0.984c-2.244,0 -4.262,-0.328 -6.057,-0.984c-1.795,-0.655 -3.316,-1.569 -4.566,-2.74c-1.25,-1.171 -2.211,-2.576 -2.884,-4.215c-0.673,-1.64 -1.01,-3.458 -1.01,-5.457l0,-20.656l8.172,0l0,20c0,0.906 0.12,1.765 0.361,2.576c0.24,0.813 0.608,1.539 1.105,2.179c0.496,0.64 1.154,1.147 1.971,1.522c0.817,0.375 1.802,0.562 2.956,0.562c1.154,0 2.139,-0.187 2.956,-0.562c0.817,-0.375 1.482,-0.882 1.995,-1.522c0.512,-0.64 0.881,-1.366 1.105,-2.179c0.224,-0.811 0.337,-1.67 0.337,-2.576l0,-20l8.219,0l0,20.656c0,1.999 -0.344,3.817 -1.033,5.457" style="fill:#c81919;fill-rule:nonzero;"/><path d="M64.877,40.819l16.664,-40.819l-5.952,0l-16.664,40.819l5.952,0Z" style="fill:#c81919;fill-rule:nonzero;"/><path d="M89.635,17.143c2.943,0 5.464,1.806 6.516,4.37l-13.032,0c1.052,-2.564 3.573,-4.37 6.516,-4.37m0,-5.373c-6.857,0 -12.415,5.559 -12.415,12.415c0,6.857 5.558,12.415 12.415,12.415c4.4,0 8.896,-1.925 11.323,-5.394l-5.631,-2.296c-1.499,1.662 -3.553,2.318 -5.692,2.318c-3.156,0 -5.827,-2.076 -6.722,-4.937l18.956,0c0.117,-0.685 0.181,-1.388 0.181,-2.106c0,-6.856 -5.558,-12.415 -12.415,-12.415" style="fill:#c81919;fill-rule:nonzero;"/></svg>